<svg width="742" height="748" class="scatterD3" id="scatterD3-svg-scatterD3-ZFLVOXZI" xmlns="http://www.w3.org/2000/svg" version="1.1"><style>.scatterD3 {font: 11px Open Sans, Droid Sans, Helvetica, Verdana, sans-serif;}.scatterD3 .axis line, .axis path { stroke: #000; fill: none; shape-rendering: CrispEdges;} .scatterD3 .axis .tick line { stroke: #ddd;} .scatterD3 .axis text { fill: #000; }</style><g class="root" transform="translate(30,5)"><rect width="552" height="723" style="fill: rgb(255, 255, 255);"></rect><g class="x axis" transform="translate(0,723)" fill="none" font-size="10" font-family="sans-serif" text-anchor="middle" style="font-size: 100%;"><path class="domain" stroke="#000" d="M0.5,-723V0.5H552.5V-723"></path><g class="tick" opacity="1" transform="translate(22.530612244897966,0)"><line stroke="#000" y2="-723" x1="0.5" x2="0.5"></line><text fill="#000" y="3" x="0.5" dy="0.71em">0</text></g><g class="tick" opacity="1" transform="translate(78.85714285714285,0)"><line stroke="#000" y2="-723" x1="0.5" x2="0.5"></line><text fill="#000" y="3" x="0.5" dy="0.71em">1</text></g><g class="tick" opacity="1" transform="translate(135.18367346938777,0)"><line stroke="#000" y2="-723" x1="0.5" x2="0.5"></line><text fill="#000" y="3" x="0.5" dy="0.71em">2</text></g><g class="tick" opacity="1" transform="translate(191.51020408163265,0)"><line stroke="#000" y2="-723" x1="0.5" x2="0.5"></line><text fill="#000" y="3" x="0.5" dy="0.71em">3</text></g><g class="tick" opacity="1" transform="translate(247.83673469387756,0)"><line stroke="#000" y2="-723" x1="0.5" x2="0.5"></line><text fill="#000" y="3" x="0.5" dy="0.71em">4</text></g><g class="tick" opacity="1" transform="translate(304.1632653061224,0)"><line stroke="#000" y2="-723" x1="0.5" x2="0.5"></line><text fill="#000" y="3" x="0.5" dy="0.71em">5</text></g><g class="tick" opacity="1" transform="translate(360.4897959183673,0)"><line stroke="#000" y2="-723" x1="0.5" x2="0.5"></line><text fill="#000" y="3" x="0.5" dy="0.71em">6</text></g><g class="tick" opacity="1" transform="translate(416.81632653061223,0)"><line stroke="#000" y2="-723" x1="0.5" x2="0.5"></line><text fill="#000" y="3" x="0.5" dy="0.71em">7</text></g><g class="tick" opacity="1" transform="translate(473.1428571428571,0)"><line stroke="#000" y2="-723" x1="0.5" x2="0.5"></line><text fill="#000" y="3" x="0.5" dy="0.71em">8</text></g><g class="tick" opacity="1" transform="translate(529.469387755102,0)"><line stroke="#000" y2="-723" x1="0.5" x2="0.5"></line><text fill="#000" y="3" x="0.5" dy="0.71em">9</text></g></g><g class="y axis" fill="none" font-size="10" font-family="sans-serif" text-anchor="end" style="font-size: 100%;"><path class="domain" stroke="#000" d="M552,723.5H0.5V0.5H552"></path><g class="tick" opacity="1" transform="translate(0,663.9499871630422)"><line stroke="#000" x2="552" y1="0.5" y2="0.5"></line><text fill="#000" x="-3" y="0.5" dy="0.32em">0.05</text></g><g class="tick" opacity="1" transform="translate(0,584.1776552617282)"><line stroke="#000" x2="552" y1="0.5" y2="0.5"></line><text fill="#000" x="-3" y="0.5" dy="0.32em">0.1</text></g><g class="tick" opacity="1" transform="translate(0,504.40532336041406)"><line stroke="#000" x2="552" y1="0.5" y2="0.5"></line><text fill="#000" x="-3" y="0.5" dy="0.32em">0.15</text></g><g class="tick" opacity="1" transform="translate(0,424.63299145909997)"><line stroke="#000" x2="552" y1="0.5" y2="0.5"></line><text fill="#000" x="-3" y="0.5" dy="0.32em">0.2</text></g><g class="tick" opacity="1" transform="translate(0,344.8606595577859)"><line stroke="#000" x2="552" y1="0.5" y2="0.5"></line><text fill="#000" x="-3" y="0.5" dy="0.32em">0.25</text></g><g class="tick" opacity="1" transform="translate(0,265.0883276564718)"><line stroke="#000" x2="552" y1="0.5" y2="0.5"></line><text fill="#000" x="-3" y="0.5" dy="0.32em">0.3</text></g><g class="tick" opacity="1" transform="translate(0,185.3159957551576)"><line stroke="#000" x2="552" y1="0.5" y2="0.5"></line><text fill="#000" x="-3" y="0.5" dy="0.32em">0.35</text></g><g class="tick" opacity="1" transform="translate(0,105.54366385384367)"><line stroke="#000" x2="552" y1="0.5" y2="0.5"></line><text fill="#000" x="-3" y="0.5" dy="0.32em">0.4</text></g><g class="tick" opacity="1" transform="translate(0,25.771331952529522)"><line stroke="#000" x2="552" y1="0.5" y2="0.5"></line><text fill="#000" x="-3" y="0.5" dy="0.32em">0.45</text></g></g><text class="x-axis-label" transform="translate(547,717)" style="text-anchor: end; font-size: 100%;">selection$formality</text><text class="y-axis-label" transform="translate(5,6) rotate(-90)" dy=".71em" style="text-anchor: end;">selection$lang_freq</text><svg class="chart-body" width="552" height="723"><path class="line" d="M0,743.7223190643564L552,743.7223190643564" style="stroke-width: 1px; stroke: rgb(0, 0, 0); stroke-dasharray: 5px;"></path><path class="line" d="M22.530612244897966,0L22.530612244897966,723" style="stroke-width: 1px; stroke: rgb(0, 0, 0); stroke-dasharray: 5px;"></path><path transform="translate(135.18367346938777,567.0135957082058)" d="M5.641895835477563,0A5.641895835477563,5.641895835477563,0,1,1,-5.641895835477563,0A5.641895835477563,5.641895835477563,0,1,1,5.641895835477563,0" class="dot symbol symbol-cwritten color color-cscientific" style="fill: rgb(31, 119, 180); opacity: 1;"></path><path transform="translate(304.1632653061224,425.21210094658755)" d="M5.641895835477563,0A5.641895835477563,5.641895835477563,0,1,1,-5.641895835477563,0A5.641895835477563,5.641895835477563,0,1,1,5.641895835477563,0" class="dot symbol symbol-cwritten color color-cprose" style="fill: rgb(214, 39, 40); opacity: 1;"></path><path transform="translate(304.1632653061224,519.9147923190781)" d="M5.641895835477563,0A5.641895835477563,5.641895835477563,0,1,1,-5.641895835477563,0A5.641895835477563,5.641895835477563,0,1,1,5.641895835477563,0" class="dot symbol symbol-cwritten color color-cprose" style="fill: rgb(214, 39, 40); opacity: 1;"></path><path transform="translate(247.83673469387756,562.7004889806059)" d="M-6.708203932499369,-2.23606797749979L-2.23606797749979,-2.23606797749979L-2.23606797749979,-6.708203932499369L2.23606797749979,-6.708203932499369L2.23606797749979,-2.23606797749979L6.708203932499369,-2.23606797749979L6.708203932499369,2.23606797749979L2.23606797749979,2.23606797749979L2.23606797749979,6.708203932499369L-2.23606797749979,6.708203932499369L-2.23606797749979,2.23606797749979L-6.708203932499369,2.23606797749979Z" class="dot symbol symbol-cspoken color color-cepic_song" style="fill: rgb(44, 160, 44); opacity: 1;"></path><path transform="translate(247.83673469387756,406.00003802229725)" d="M-6.708203932499369,-2.23606797749979L-2.23606797749979,-2.23606797749979L-2.23606797749979,-6.708203932499369L2.23606797749979,-6.708203932499369L2.23606797749979,-2.23606797749979L6.708203932499369,-2.23606797749979L6.708203932499369,2.23606797749979L2.23606797749979,2.23606797749979L2.23606797749979,6.708203932499369L-2.23606797749979,6.708203932499369L-2.23606797749979,2.23606797749979L-6.708203932499369,2.23606797749979Z" class="dot symbol symbol-cspoken color color-cepic_song" style="fill: rgb(44, 160, 44); opacity: 1;"></path><path transform="translate(473.1428571428571,103.28571428571433)" d="M-6.708203932499369,-2.23606797749979L-2.23606797749979,-2.23606797749979L-2.23606797749979,-6.708203932499369L2.23606797749979,-6.708203932499369L2.23606797749979,-2.23606797749979L6.708203932499369,-2.23606797749979L6.708203932499369,2.23606797749979L2.23606797749979,2.23606797749979L2.23606797749979,6.708203932499369L-2.23606797749979,6.708203932499369L-2.23606797749979,2.23606797749979L-6.708203932499369,2.23606797749979Z" class="dot symbol symbol-cspoken color color-cinterview" style="fill: rgb(255, 127, 14); opacity: 1;"></path><path transform="translate(473.1428571428571,140.8825470413957)" d="M-6.708203932499369,-2.23606797749979L-2.23606797749979,-2.23606797749979L-2.23606797749979,-6.708203932499369L2.23606797749979,-6.708203932499369L2.23606797749979,-2.23606797749979L6.708203932499369,-2.23606797749979L6.708203932499369,2.23606797749979L2.23606797749979,2.23606797749979L2.23606797749979,6.708203932499369L-2.23606797749979,6.708203932499369L-2.23606797749979,2.23606797749979L-6.708203932499369,2.23606797749979Z" class="dot symbol symbol-cspoken color color-cinterview" style="fill: rgb(255, 127, 14); opacity: 1;"></path><path transform="translate(473.1428571428571,321.944694648247)" d="M-6.708203932499369,-2.23606797749979L-2.23606797749979,-2.23606797749979L-2.23606797749979,-6.708203932499369L2.23606797749979,-6.708203932499369L2.23606797749979,-2.23606797749979L6.708203932499369,-2.23606797749979L6.708203932499369,2.23606797749979L2.23606797749979,2.23606797749979L2.23606797749979,6.708203932499369L-2.23606797749979,6.708203932499369L-2.23606797749979,2.23606797749979L-6.708203932499369,2.23606797749979Z" class="dot symbol symbol-cspoken color color-cinterview" style="fill: rgb(255, 127, 14); opacity: 1;"></path><path transform="translate(247.83673469387756,528.7916838898309)" d="M-6.708203932499369,-2.23606797749979L-2.23606797749979,-2.23606797749979L-2.23606797749979,-6.708203932499369L2.23606797749979,-6.708203932499369L2.23606797749979,-2.23606797749979L6.708203932499369,-2.23606797749979L6.708203932499369,2.23606797749979L2.23606797749979,2.23606797749979L2.23606797749979,6.708203932499369L-2.23606797749979,6.708203932499369L-2.23606797749979,2.23606797749979L-6.708203932499369,2.23606797749979Z" class="dot symbol symbol-cspoken color color-cfolklore" style="fill: rgb(148, 103, 189); opacity: 1;"></path><path transform="translate(191.51020408163265,312.80261963482826)" d="M5.641895835477563,0A5.641895835477563,5.641895835477563,0,1,1,-5.641895835477563,0A5.641895835477563,5.641895835477563,0,1,1,5.641895835477563,0" class="dot symbol symbol-cwritten color color-clegal" style="fill: rgb(140, 86, 75); opacity: 1;"></path><path transform="translate(78.85714285714285,619.7142857142858)" d="M-6.708203932499369,-2.23606797749979L-2.23606797749979,-2.23606797749979L-2.23606797749979,-6.708203932499369L2.23606797749979,-6.708203932499369L2.23606797749979,-2.23606797749979L6.708203932499369,-2.23606797749979L6.708203932499369,2.23606797749979L2.23606797749979,2.23606797749979L2.23606797749979,6.708203932499369L-2.23606797749979,6.708203932499369L-2.23606797749979,2.23606797749979L-6.708203932499369,2.23606797749979Z" class="dot symbol symbol-cspoken color color-creligious" style="fill: rgb(227, 119, 194); opacity: 1;"></path><path transform="translate(247.83673469387756,434.68598077688495)" d="M5.641895835477563,0A5.641895835477563,5.641895835477563,0,1,1,-5.641895835477563,0A5.641895835477563,5.641895835477563,0,1,1,5.641895835477563,0" class="dot symbol symbol-cwritten color color-cfolklore" style="fill: rgb(148, 103, 189); opacity: 1;"></path><path transform="translate(247.83673469387756,584.4085447896624)" d="M5.641895835477563,0A5.641895835477563,5.641895835477563,0,1,1,-5.641895835477563,0A5.641895835477563,5.641895835477563,0,1,1,5.641895835477563,0" class="dot symbol symbol-cwritten color color-cfolklore" style="fill: rgb(148, 103, 189); opacity: 1;"></path></svg></g><defs><marker id="arrow-head-scatterD3-ZFLVOXZI-#1f77b4" markerWidth="10" markerHeight="10" refX="10" refY="4" orient="auto"><path d="M0,0 L0,8 L10,4 L0,0" style="fill: rgb(31, 119, 180);"></path></marker><marker id="arrow-head-scatterD3-ZFLVOXZI-#d62728" markerWidth="10" markerHeight="10" refX="10" refY="4" orient="auto"><path d="M0,0 L0,8 L10,4 L0,0" style="fill: rgb(214, 39, 40);"></path></marker><marker id="arrow-head-scatterD3-ZFLVOXZI-#2ca02c" markerWidth="10" markerHeight="10" refX="10" refY="4" orient="auto"><path d="M0,0 L0,8 L10,4 L0,0" style="fill: rgb(44, 160, 44);"></path></marker><marker id="arrow-head-scatterD3-ZFLVOXZI-#ff7f0e" markerWidth="10" markerHeight="10" refX="10" refY="4" orient="auto"><path d="M0,0 L0,8 L10,4 L0,0" style="fill: rgb(255, 127, 14);"></path></marker><marker id="arrow-head-scatterD3-ZFLVOXZI-#9467bd" markerWidth="10" markerHeight="10" refX="10" refY="4" orient="auto"><path d="M0,0 L0,8 L10,4 L0,0" style="fill: rgb(148, 103, 189);"></path></marker><marker id="arrow-head-scatterD3-ZFLVOXZI-#8c564b" markerWidth="10" markerHeight="10" refX="10" refY="4" orient="auto"><path d="M0,0 L0,8 L10,4 L0,0" style="fill: rgb(140, 86, 75);"></path></marker><marker id="arrow-head-scatterD3-ZFLVOXZI-#e377c2" markerWidth="10" markerHeight="10" refX="10" refY="4" orient="auto"><path d="M0,0 L0,8 L10,4 L0,0" style="fill: rgb(227, 119, 194);"></path></marker><marker id="arrow-head-scatterD3-ZFLVOXZI-#7f7f7f" markerWidth="10" markerHeight="10" refX="10" refY="4" orient="auto"><path d="M0,0 L0,8 L10,4 L0,0" style="fill: rgb(127, 127, 127);"></path></marker><marker id="arrow-head-scatterD3-ZFLVOXZI-#bcbd22" markerWidth="10" markerHeight="10" refX="10" refY="4" orient="auto"><path d="M0,0 L0,8 L10,4 L0,0" style="fill: rgb(188, 189, 34);"></path></marker><marker id="arrow-head-scatterD3-ZFLVOXZI-#17becf" markerWidth="10" markerHeight="10" refX="10" refY="4" orient="auto"><path d="M0,0 L0,8 L10,4 L0,0" style="fill: rgb(23, 190, 207);"></path></marker></defs><g class="legend" style="font-size: 100%;"><g class="color-legend-label" transform="translate(606, 50)"><text style="fill: rgb(0, 0, 0); font-weight: bold;">selection$genre</text></g><g class="color-legend" transform="translate(606, 62)"><g class="legendCells"><g class="cell" transform="translate(0, 0)"><rect class="swatch" height="15" width="15" style="fill: rgb(44, 160, 44);"></rect><text class="label" transform="translate(25,12.5)">epic_song</text></g><g class="cell" transform="translate(0, 18)"><rect class="swatch" height="15" width="15" style="fill: rgb(148, 103, 189);"></rect><text class="label" transform="translate(25,12.5)">folklore</text></g><g class="cell" transform="translate(0, 36)"><rect class="swatch" height="15" width="15" style="fill: rgb(255, 127, 14);"></rect><text class="label" transform="translate(25,12.5)">interview</text></g><g class="cell" transform="translate(0, 54)"><rect class="swatch" height="15" width="15" style="fill: rgb(140, 86, 75);"></rect><text class="label" transform="translate(25,12.5)">legal</text></g><g class="cell" transform="translate(0, 72)"><rect class="swatch" height="15" width="15" style="fill: rgb(214, 39, 40);"></rect><text class="label" transform="translate(25,12.5)">prose</text></g><g class="cell" transform="translate(0, 90)"><rect class="swatch" height="15" width="15" style="fill: rgb(227, 119, 194);"></rect><text class="label" transform="translate(25,12.5)">religious</text></g><g class="cell" transform="translate(0, 108)"><rect class="swatch" height="15" width="15" style="fill: rgb(31, 119, 180);"></rect><text class="label" transform="translate(25,12.5)">scientific</text></g></g></g><g><text class="symbol-legend-label" transform="translate(606, 220)" style="fill: rgb(0, 0, 0); font-weight: bold;">selection$mode</text></g><g class="symbol-legend" transform="translate(614, 236)"><g class="legendCells"><g class="cell" transform="translate(0, 0)"><path class="swatch" d="M-5.366563145999495,-1.7888543819998317L-1.7888543819998317,-1.7888543819998317L-1.7888543819998317,-5.366563145999495L1.7888543819998317,-5.366563145999495L1.7888543819998317,-1.7888543819998317L5.366563145999495,-1.7888543819998317L5.366563145999495,1.7888543819998317L1.7888543819998317,1.7888543819998317L1.7888543819998317,5.366563145999495L-1.7888543819998317,5.366563145999495L-1.7888543819998317,1.7888543819998317L-5.366563145999495,1.7888543819998317Z"></path><text class="label" transform="translate(20.733126640319824,5)">spoken</text></g><g class="cell" transform="translate(0, 15.733126640319824)"><path class="swatch" d="M4.51351666838205,0A4.51351666838205,4.51351666838205,0,1,1,-4.51351666838205,0A4.51351666838205,4.51351666838205,0,1,1,4.51351666838205,0"></path><text class="label" transform="translate(20.733126640319824,5)">written</text></g></g></g></g></svg>